# Exported from ProBuilder
# http://www.procore3d.com/probuilder
# 7/18/2018 3:30:44 PM

mtllib ./Best_Tree(Clone1).mtl
o Best Tree(Clone1)

g Best Tree(Clone1)
v -24.36123 2.698575 4.154578
v -24.53344 2.698575 4.452848
v -24.70564 2.698575 4.154578
v -24.53344 2.698575 4.452848
v -24.87785 2.698575 4.452848
v -24.70564 2.698575 4.154578
v -24.87785 2.698575 4.452848
v -25.05005 2.698575 4.154578
v -24.70564 2.698575 4.154578
v -25.05005 2.698575 4.154578
v -24.87785 2.698575 3.856308
v -24.70564 2.698575 4.154578
v -24.87785 2.698575 3.856308
v -24.53344 2.698575 3.856308
v -24.70564 2.698575 4.154578
v -24.53344 2.698575 3.856308
v -24.36123 2.698575 4.154578
v -24.70564 2.698575 4.154578
v -24.23182 3.656089 4.317303
v -24.203 3 5.016026
v -23.703 3 4.15
v -24.32252 3.656089 3.825598
v -24.6123 3.656089 4.641705
v -25.203 3 5.016026
v -24.203 3 5.016026
v -24.23182 3.656089 4.317303
v -25.08348 3.656089 4.474401
v -25.703 3 4.15
v -25.203 3 5.016026
v -24.6123 3.656089 4.641705
v -25.17418 3.656089 3.982697
v -25.203 3 3.283975
v -25.703 3 4.15
v -25.08348 3.656089 4.474401
v -24.7937 3.656089 3.658295
v -24.203 3 3.283975
v -25.203 3 3.283975
v -25.17418 3.656089 3.982697
v -24.32252 3.656089 3.825598
v -23.703 3 4.15
v -24.203 3 3.283975
v -24.7937 3.656089 3.658295
v -24.56925 5 4.15
v -24.56375 4.328044 4.357626
v -24.45356 4.328044 4.133217
v -24.56375 4.328044 4.357626
v -24.23182 3.656089 4.317303
v -24.32252 3.656089 3.825598
v -24.45356 4.328044 4.133217
v -24.56925 5 4.15
v -24.81318 4.328044 4.374409
v -24.56375 4.328044 4.357626
v -24.81318 4.328044 4.374409
v -24.6123 3.656089 4.641705
v -24.23182 3.656089 4.317303
v -24.56375 4.328044 4.357626
v -24.56925 5 4.15
v -24.95243 4.328044 4.166783
v -24.81318 4.328044 4.374409
v -24.95243 4.328044 4.166783
v -25.08348 3.656089 4.474401
v -24.6123 3.656089 4.641705
v -24.81318 4.328044 4.374409
v -24.56925 5 4.15
v -24.84225 4.328044 3.942374
v -24.95243 4.328044 4.166783
v -24.84225 4.328044 3.942374
v -25.17418 3.656089 3.982697
v -25.08348 3.656089 4.474401
v -24.95243 4.328044 4.166783
v -24.56925 5 4.15
v -24.59282 4.328044 3.925591
v -24.84225 4.328044 3.942374
v -24.59282 4.328044 3.925591
v -24.7937 3.656089 3.658295
v -25.17418 3.656089 3.982697
v -24.84225 4.328044 3.942374
v -24.56925 5 4.15
v -24.45356 4.328044 4.133217
v -24.59282 4.328044 3.925591
v -24.45356 4.328044 4.133217
v -24.32252 3.656089 3.825598
v -24.7937 3.656089 3.658295
v -24.59282 4.328044 3.925591
v -23.703 3 4.15
v -24.203 3 5.016026
v -24.4326 2.9999 4.15
v -24.5678 2.9999 4.384176
v -25.203 3 5.016026
v -25.703 3 4.15
v -24.8382 2.9999 4.384176
v -24.9734 2.9999 4.15
v -24.203 3 5.016026
v -25.203 3 5.016026
v -24.5678 2.9999 4.384176
v -24.8382 2.9999 4.384176
v -25.703 3 4.15
v -25.203 3 3.283975
v -24.9734 2.9999 4.15
v -24.8382 2.9999 3.915824
v -25.203 3 3.283975
v -24.203 3 3.283975
v -24.8382 2.9999 3.915824
v -24.5678 2.9999 3.915824
v -24.203 3 3.283975
v -23.703 3 4.15
v -24.5678 2.9999 3.915824
v -24.4326 2.9999 4.15
v -24.4326 2.9999 4.15
v -24.5678 2.9999 4.384176
v -24.36123 2.698575 4.154578
v -24.53344 2.698575 4.452848
v -24.8382 2.9999 4.384176
v -24.9734 2.9999 4.15
v -24.87785 2.698575 4.452848
v -25.05005 2.698575 4.154578
v -24.5678 2.9999 4.384176
v -24.8382 2.9999 4.384176
v -24.53344 2.698575 4.452848
v -24.87785 2.698575 4.452848
v -24.9734 2.9999 4.15
v -24.8382 2.9999 3.915824
v -25.05005 2.698575 4.154578
v -24.87785 2.698575 3.856308
v -24.8382 2.9999 3.915824
v -24.5678 2.9999 3.915824
v -24.87785 2.698575 3.856308
v -24.53344 2.698575 3.856308
v -24.5678 2.9999 3.915824
v -24.4326 2.9999 4.15
v -24.53344 2.698575 3.856308
v -24.36123 2.698575 4.154578

vn 0 -1 0
vn 0 -1 0
vn 0 -1 0
vn 0 -1 0
vn 0 -1 0
vn 0 -1 0
vn 0 -1 0
vn 0 -1 0
vn 0 -1 0
vn 0 -1 0
vn 0 -1 0
vn 0 -1 0
vn 0 -1 0
vn 0 -1 0
vn 0 -1 0
vn 0 -1 0
vn 0 -1 0
vn 0 -1 0
vn 0.5927764 0.4460277 0.4734558
vn 0.3761052 0.6122751 0.5594027
vn 0.6912735 0.5724252 -0.1624438
vn 0.5830607 0.3010475 -0.5224547
vn 0.03232709 0.2971361 0.700756
vn -0.2026174 0.6507113 0.5702361
vn 0.3761052 0.6122751 0.5594027
vn 0.5927764 0.4460277 0.4734558
vn -0.5830604 0.3010473 0.5224547
vn -0.6912735 0.5724252 0.1624439
vn -0.2026174 0.6507113 0.5702361
vn 0.03232709 0.2971361 0.700756
vn -0.6701477 0.4635964 -0.419648
vn -0.4698922 0.533989 -0.6162514
vn -0.6912735 0.5724252 0.1624439
vn -0.5830604 0.3010473 0.5224547
vn 0.08118617 0.4773252 -0.712175
vn 0.2964045 0.6122749 -0.6054181
vn -0.4698922 0.533989 -0.6162514
vn -0.6701477 0.4635964 -0.419648
vn 0.5830607 0.3010475 -0.5224547
vn 0.6912735 0.5724252 -0.1624438
vn 0.2964045 0.6122749 -0.6054181
vn 0.08118617 0.4773252 -0.712175
vn 0.0267319 0.2993905 8.742015E-07
vn 0.4620714 0.1988262 0.6984386
vn 0.7880266 0.2340828 -0.2239135
vn 0.4620714 0.1988262 0.6984386
vn 0.5927764 0.4460277 0.4734558
vn 0.5830607 0.3010475 -0.5224547
vn 0.7880266 0.2340828 -0.2239135
vn 0.0267319 0.2993905 8.742015E-07
vn -0.2653266 0.2565567 0.7109957
vn 0.4620714 0.1988262 0.6984386
vn -0.2653266 0.2565567 0.7109957
vn 0.03232709 0.2971361 0.700756
vn 0.5927764 0.4460277 0.4734558
vn 0.4620714 0.1988262 0.6984386
vn 0.0267319 0.2993905 8.742015E-07
vn -0.7480533 0.3813282 0.2220631
vn -0.2653266 0.2565567 0.7109957
vn -0.7480533 0.3813282 0.2220631
vn -0.5830604 0.3010473 0.5224547
vn 0.03232709 0.2971361 0.700756
vn -0.2653266 0.2565567 0.7109957
vn 0.0267319 0.2993905 8.742015E-07
vn -0.4404613 0.2810287 -0.6860378
vn -0.7480533 0.3813282 0.2220631
vn -0.4404613 0.2810287 -0.6860378
vn -0.6701477 0.4635964 -0.419648
vn -0.5830604 0.3010473 0.5224547
vn -0.7480533 0.3813282 0.2220631
vn 0.0267319 0.2993905 8.742015E-07
vn 0.283939 0.191514 -0.7215436
vn -0.4404613 0.2810287 -0.6860378
vn 0.283939 0.191514 -0.7215436
vn 0.08118617 0.4773252 -0.712175
vn -0.6701477 0.4635964 -0.419648
vn -0.4404613 0.2810287 -0.6860378
vn 0.0267319 0.2993905 8.742015E-07
vn 0.7880266 0.2340828 -0.2239135
vn 0.283939 0.191514 -0.7215436
vn 0.7880266 0.2340828 -0.2239135
vn 0.5830607 0.3010475 -0.5224547
vn 0.08118617 0.4773252 -0.712175
vn 0.283939 0.191514 -0.7215436
vn 0.000137062 -1 7.913275E-05
vn 0.000137062 -1 7.913275E-05
vn 0.000137062 -1 7.913275E-05
vn 0.000137062 -1 7.913276E-05
vn -0.000137062 -1 7.913276E-05
vn -0.000137062 -1 7.913276E-05
vn -0.000137062 -1 7.913276E-05
vn -0.000137062 -1 7.913276E-05
vn 0 -1 0.0001582655
vn -1.856371E-12 -1 0.0001582655
vn -1.856371E-12 -1 0.0001582655
vn -8.72157E-12 -1 0.0001582655
vn -0.000137062 -1 -7.913278E-05
vn -0.000137062 -1 -7.913278E-05
vn -0.000137062 -1 -7.913278E-05
vn -0.000137062 -0.9999999 -7.913278E-05
vn 0 -1 -0.0001582655
vn 0 -1 -0.0001582655
vn 0 -1 -0.0001582655
vn 0 -1 -0.0001582655
vn 0.000137062 -1 -7.913279E-05
vn 0.000137062 -1 -7.913278E-05
vn 0.000137062 -1 -7.913278E-05
vn 0.000137062 -1 -7.913275E-05
vn 0.8470747 0.2080529 0.4890588
vn 0.8470747 0.208053 0.4890587
vn 0.8470747 0.208053 0.4890587
vn 0.8470747 0.208053 0.4890586
vn -0.8443751 0.2222034 0.4875001
vn -0.8443752 0.2222033 0.4875001
vn -0.8443752 0.2222033 0.4875001
vn -0.8443752 0.2222032 0.4875
vn -4.45777E-08 0.2222034 0.9750003
vn -1.960579E-08 0.2222034 0.9750004
vn -1.960579E-08 0.2222034 0.9750004
vn 0 0.2222035 0.9750004
vn -0.8470747 0.2080527 -0.4890588
vn -0.8470747 0.2080528 -0.4890588
vn -0.8470747 0.2080528 -0.4890588
vn -0.8470747 0.2080528 -0.4890588
vn 0 0.1937705 -0.9810469
vn 0 0.1937705 -0.9810469
vn 0 0.1937705 -0.9810469
vn 0 0.1937705 -0.9810469
vn 0.8496115 0.1937706 -0.4905234
vn 0.8496116 0.1937706 -0.4905234
vn 0.8496116 0.1937706 -0.4905234
vn 0.8496116 0.1937706 -0.4905233

vt -0.6582305 0.004578153
vt -0.8304368 0.3028483
vt -1.002643 0.004578153
vt -0.8304368 0.3028483
vt -1.17485 0.3028483
vt -1.002643 0.004578153
vt -1.17485 0.3028483
vt -1.347056 0.004578121
vt -1.002643 0.004578153
vt -1.347056 0.004578121
vt -1.17485 -0.293692
vt -1.002643 0.004578153
vt -1.17485 -0.293692
vt -0.8304368 -0.293692
vt -1.002643 0.004578153
vt -0.8304368 -0.293692
vt -0.6582305 0.004578153
vt -1.002643 0.004578153
vt 0.2435721 0.7859129
vt 0.930375 0.1239249
vt 0 0
vt -0.2293439 0.8407846
vt -1.010286 0.5306475
vt -1.681886 -0.1512898
vt -0.7214789 -0.2531406
vt -0.5544941 0.6057945
vt -0.94965 0.2044927
vt -1.64361 -0.4349054
vt -0.739273 -0.5978013
vt -0.4671083 0.2544786
vt 0.08103291 0.009181329
vt -0.6030347 -0.6501702
vt 0.3343996 -0.7895845
vt 0.5506508 0.07790969
vt -0.8968784 0.3032832
vt -0.2219877 -0.3729887
vt -1.177399 -0.4859422
vt -1.35618 0.378868
vt -0.6967871 0.6366061
vt 0 0
vt -0.8871126 -0.1584772
vt -1.184043 0.6751202
vt 0.1279402 2.171877
vt 0.3324769 1.527271
vt 0.09425531 1.501638
vt 0.3324769 1.527271
vt 0.2435721 0.7859129
vt -0.2293439 0.8407846
vt 0.09425531 1.501638
vt -0.8319513 1.949788
vt -1.128749 1.270399
vt -0.8845126 1.250887
vt -1.128749 1.270399
vt -1.010286 0.5306475
vt -0.5544941 0.6057945
vt -0.8845126 1.250887
vt -0.7118874 1.660245
vt -1.01723 0.9505633
vt -0.784493 0.9157236
vt -1.01723 0.9505633
vt -0.94965 0.2044927
vt -0.4671083 0.2544786
vt -0.784493 0.9157236
vt 0.1448366 1.490667
vt -0.01422051 0.753255
vt 0.2254522 0.72478
vt -0.01422051 0.753255
vt 0.08103291 0.009181329
vt 0.5506508 0.07790969
vt 0.2254522 0.72478
vt -0.8276238 1.750038
vt -0.7838776 1.044512
vt -1.027148 1.022471
vt -0.7838776 1.044512
vt -0.8968784 0.3032832
vt -1.35618 0.378868
vt -1.027148 1.022471
vt -0.7304842 2.038276
vt -0.6419512 1.380963
vt -0.8709748 1.346545
vt -0.6419512 1.380963
vt -0.6967871 0.6366061
vt -1.184043 0.6751202
vt -0.8709748 1.346545
vt 0 0
vt -0.5 0.8660254
vt -0.7295969 -2.412602E-16
vt -0.8647984 0.234176
vt -1.5 0.8660254
vt -2 -1.09115E-07
vt -1.135202 0.234176
vt -1.270403 -4.533158E-08
vt -0.5 0.8660254
vt -1.5 0.8660254
vt -0.8647984 0.234176
vt -1.135202 0.234176
vt -2 -6.573059E-08
vt -1.5 -0.8660254
vt -1.270403 -1.947205E-09
vt -1.135202 -0.234176
vt -1.5 -0.8660254
vt -0.5000001 -0.8660254
vt -1.135202 -0.234176
vt -0.8647984 -0.234176
vt -0.5000001 -0.8660254
vt 0 0
vt -0.8647984 -0.234176
vt -0.7295969 2.412602E-16
vt -0.3647983 0.1313604
vt -0.6352015 0.1313604
vt -0.33308 -0.1767061
vt -0.6774926 -0.1767061
vt -0.3647982 -0.2445658
vt -0.6352014 -0.2445659
vt -0.3251503 -0.5536172
vt -0.6695629 -0.5536172
vt -0.8647984 -0.05213221
vt -1.135202 -0.05213221
vt -0.8304368 -0.3611836
vt -1.17485 -0.3611836
vt 0.6352015 -0.2289978
vt 0.3647983 -0.2289978
vt 0.6774926 -0.5370643
vt 0.3330799 -0.5370643
vt 1.135202 -0.04547451
vt 0.8647984 -0.04547451
vt 1.17485 -0.3526211
vt 0.8304368 -0.3526211
vt 0.6352015 0.1223357
vt 0.3647983 0.1223357
vt 0.6695631 -0.1848109
vt 0.3251504 -0.1848109

g Best Tree(Clone1)_0
usemtl Default_Prototype
f 20/20/20 21/21/21 22/22/22 19/19/19
f 23/23/23 24/24/24 25/25/25 26/26/26
f 27/27/27 28/28/28 29/29/29 30/30/30
f 32/32/32 33/33/33 34/34/34 31/31/31
f 36/36/36 37/37/37 38/38/38 35/35/35
f 39/39/39 40/40/40 41/41/41 42/42/42
f 46/46/46 47/47/47 48/48/48 49/49/49
f 54/54/54 55/55/55 56/56/56 53/53/53
f 61/61/61 62/62/62 63/63/63 60/60/60
f 67/67/67 68/68/68 69/69/69 70/70/70
f 75/75/75 76/76/76 77/77/77 74/74/74
f 82/82/82 83/83/83 84/84/84 81/81/81
f 85/85/85 86/86/86 88/88/88 87/87/87
f 89/89/89 90/90/90 92/92/92 91/91/91
f 93/93/93 94/94/94 96/96/96 95/95/95
f 97/97/97 98/98/98 100/100/100 99/99/99
f 101/101/101 102/102/102 104/104/104 103/103/103
f 105/105/105 106/106/106 108/108/108 107/107/107
f 109/109/109 110/110/110 112/112/112 111/111/111
f 113/113/113 114/114/114 116/116/116 115/115/115
f 117/117/117 118/118/118 120/120/120 119/119/119
f 121/121/121 122/122/122 124/124/124 123/123/123
f 125/125/125 126/126/126 128/128/128 127/127/127
f 129/129/129 130/130/130 132/132/132 131/131/131

g Best Tree(Clone1)_1
usemtl Default_Prototype
f 1/1/1 2/2/2 3/3/3
f 4/4/4 5/5/5 6/6/6
f 7/7/7 8/8/8 9/9/9
f 10/10/10 11/11/11 12/12/12
f 13/13/13 14/14/14 15/15/15
f 16/16/16 17/17/17 18/18/18
f 43/43/43 44/44/44 45/45/45
f 50/50/50 51/51/51 52/52/52
f 57/57/57 58/58/58 59/59/59
f 64/64/64 65/65/65 66/66/66
f 71/71/71 72/72/72 73/73/73
f 78/78/78 79/79/79 80/80/80

